<svg version="1.1" id="logo" xmlns="http://www.w3.org/2000/svg" x="0px" y="0px" viewBox="0 0 500 500" style="enable-background:new 0 0 500 500;" xml:space="preserve">
	<path id="letter" d="M250,87.2c-90.5,0-163.8,73.3-163.8,163.8c0,90.4,73.3,163.8,163.8,163.8
		c90.4,0,163.7-73.3,163.7-163.8C413.8,160.6,340.4,87.2,250,87.2z M164.5,302.4c-28.4,0-51.4-23-51.4-51.4s23-51.4,51.4-51.4
		s51.4,23,51.4,51.4S192.9,302.4,164.5,302.4z M298.3,212.9c-1.3,1.3-2.9,2-4.7,2h-51.4v30.2h36.9c1.8,0,3.4,0.6,4.7,2
		c1.3,1.3,2,2.9,2,4.7c0,1.8-0.7,3.4-2,4.7c-1.3,1.3-2.9,2-4.7,2h-36.9v36.9c0,1.8-0.7,3.4-2,4.7c-1.3,1.3-2.9,2-4.7,2
		c-1.8,0-3.4-0.7-4.7-2c-1.3-1.3-2-2.9-2-4.7v-87.1c0-0.9,0.2-1.8,0.5-2.6c0.3-0.8,0.8-1.5,1.4-2.1c0.6-0.6,1.3-1.1,2.1-1.4
		c0.8-0.3,1.7-0.5,2.6-0.5h58c1.8,0,3.4,0.7,4.7,2c1.3,1.3,2,2.9,2,4.7C300.2,210,299.5,211.6,298.3,212.9z M384.5,290.7
		c-9.3,7.4-19.8,11.2-31.6,11.2c-13.9,0-25.7-4.9-35.5-14.7c-9.8-9.8-14.7-21.6-14.7-35.5c0-13.9,4.9-25.7,14.7-35.5
		c9.8-9.8,21.7-14.7,35.5-14.7c11.9,0,22.6,3.9,32.2,11.7c1.2,1.1,1.8,2.6,1.8,4.6c0,1-0.2,1.8-0.5,2.6c-0.3,0.8-0.8,1.5-1.4,2.1
		c-0.6,0.6-1.3,1.1-2.1,1.4c-0.8,0.3-1.7,0.5-2.6,0.5c-1.6,0-3.2-0.6-4.6-1.9c-3.2-2.5-6.7-4.4-10.5-5.8c-3.8-1.3-7.9-2-12.2-2
		c-10.2,0-18.9,3.6-26.1,10.9c-7.1,7.1-10.7,15.8-10.7,26c0,10.3,3.6,18.9,10.7,26.1c7.2,7.2,15.9,10.8,26.1,10.8
		c8.7,0,16.4-2.7,23.1-8.1c1.1-0.7,2.4-1.1,3.9-1.2c0.9,0,1.8,0.2,2.6,0.5c0.8,0.4,1.5,0.8,2.1,1.4c0.6,0.6,1.1,1.3,1.4,2.1
		c0.4,0.8,0.5,1.7,0.5,2.6C386.6,287.7,385.9,289.3,384.5,290.7z"/>
	<path id="heart" d="M176.7,293.4c-82.4-23.7-55.2-89.3-13.9-49.5C171.3,197.4,236.6,219.2,176.7,293.4"/>
</svg>
